<svg width="20" height="20" viewBox="0 0 20 20" fill="none" xmlns="http://www.w3.org/2000/svg">
<path fill-rule="evenodd" clip-rule="evenodd" d="M10.974 18.5413C13.0897 17.0976 17.9166 13.3048 17.9166 8.74992C17.9166 4.37766 14.3722 0.833252 9.99998 0.833252C5.62773 0.833252 2.08331 4.37766 2.08331 8.74992C2.08331 13.3048 6.91023 17.0976 9.02594 18.5413C9.61757 18.945 10.3824 18.945 10.974 18.5413ZM9.99998 11.2499C11.3807 11.2499 12.5 10.1306 12.5 8.74992C12.5 7.36921 11.3807 6.24992 9.99998 6.24992C8.61927 6.24992 7.49998 7.36921 7.49998 8.74992C7.49998 10.1306 8.61927 11.2499 9.99998 11.2499Z" fill="#898989"/>
</svg>
